<?xml version="1.0" encoding="UTF-8" standalone="no"?>
<svg width="62px" height="40px" viewBox="0 0 62 40" version="1.1" xmlns="http://www.w3.org/2000/svg" xmlns:xlink="http://www.w3.org/1999/xlink" xmlns:sketch="http://www.bohemiancoding.com/sketch/ns">
    <title>PeppermintMockups</title>
    <description>Created with Sketch (http://www.bohemiancoding.com/sketch)</description>
    <defs></defs>
    <g id="Resources" stroke="none" stroke-width="1" fill="none" fill-rule="evenodd" sketch:type="MSPage">
        <g id="Vectorized-Logo-copy" sketch:type="MSLayerGroup" transform="translate(1.000000, 0.000000)">
            <g id="Green" transform="translate(5.962733, 0.000000)" sketch:type="MSShapeGroup">
                <path d="M36.735131,9.01634278 L36.5478965,9.18845643 C36.5616057,9.17669603 36.6585138,9.10050187 36.8272165,8.98114095 C37.1433895,8.75744154 37.5117804,8.52884318 37.919016,8.31548849 C40.0799492,7.18335456 42.1000029,7.02421033 43.9772768,8.2445614 C44.3246262,8.47036124 44.6736927,8.74562989 45.0242502,9.07530889 C45.8033382,9.80799577 46.2761932,10.5544179 46.521906,11.3405849 C46.9964911,12.8590372 46.6500273,14.71737 45.6879963,16.634509 C45.4449561,17.1188405 45.1841875,17.5620115 44.9274777,17.948085 C44.8417646,18.0769914 44.7647824,18.1869772 44.6993476,18.2762467 C43.394541,19.9234558 43.6813144,22.2297733 45.3027727,23.4780947 C46.924231,24.7264162 49.2663609,24.4440276 50.5340663,22.8473623 C50.685187,22.6570268 50.9022477,22.3609015 51.1631558,21.968514 C51.5771867,21.3458407 51.9871588,20.6491016 52.3701432,19.8858887 C54.0971028,16.4443969 54.7765223,12.8001847 53.6455765,9.18168256 C53.0219796,7.18646155 51.8643611,5.35911062 50.1720621,3.7676019 C49.5038579,3.13919467 48.807114,2.58975276 48.083625,2.11943751 C43.5682509,-0.815851464 38.7562676,-0.436752924 34.4181279,1.8360406 C33.7016207,2.21142571 33.0534765,2.61361999 32.4780978,3.02071323 C32.2697018,3.16815799 32.0825032,3.30815345 31.917249,3.4380849 C31.8045613,3.52668577 31.7158657,3.59967149 31.6520044,3.65445459 L31.4647699,3.82656824 L1.09152752,33.735388 C-0.363842508,35.1685046 -0.363842508,37.4920458 1.09152752,38.9251625 C2.54689755,40.3582792 4.90651859,40.3582792 6.36188863,38.9251625 L36.735131,9.01634278 Z" id="Path-2" fill="#FFFFFF"></path>
                <path d="M35.8128178,8.10813224 L35.6911154,8.22000611 C35.8396633,8.1025026 35.9441425,8.02436837 36.0661207,7.93806609 C36.4276547,7.68227277 36.8450024,7.42329513 37.3063606,7.18158511 C39.8483049,5.84983575 42.3569463,5.65219951 44.6958878,7.17266472 C45.1090616,7.44125475 45.5189716,7.76450373 45.9251173,8.14646021 C46.8640172,9.02944087 47.4567058,9.96502551 47.7685484,10.962777 C48.3579965,12.848738 47.9532655,15.0195997 46.857372,17.2035005 C46.5898416,17.7366362 46.3029623,18.2241816 46.0187213,18.65166 C45.856295,18.8959378 45.7391492,19.0557541 45.6898148,19.1178905 C44.8658063,20.155723 45.0522091,21.6548294 46.106157,22.4662383 C47.1601049,23.2776472 48.6824893,23.0940947 49.5064978,22.0562622 C49.6360275,21.8931205 49.8318941,21.6259092 50.0719122,21.2649389 C50.4584119,20.6836706 50.8422733,20.0313059 51.2007675,19.3168972 C52.7938645,16.1421672 53.4150168,12.8104839 52.3989342,9.55949048 C51.841467,7.7758539 50.8036821,6.13766552 49.271195,4.69645066 C48.658579,4.12032083 48.0226786,3.61885924 47.365014,3.19133419 C43.3113075,0.556159349 38.9879119,0.896765886 35.0307833,2.96994398 C34.3683987,3.31697377 33.7692113,3.68878876 33.2391935,4.06378808 C32.9075322,4.29844584 32.6616455,4.4917748 32.5087855,4.62290492 L32.3870831,4.73477879 L2.01384072,34.6435985 C1.0678502,35.5751243 1.0678502,37.0854261 2.01384072,38.016952 C2.95983124,38.9484778 4.49358491,38.9484778 5.43957543,38.016952 L35.8128178,8.10813224 Z" id="Path-2-copy" fill="#15D784"></path>
            </g>
            <g id="Red" transform="translate(27.018634, 20.000000) scale(-1, 1) translate(-27.018634, -20.000000) " sketch:type="MSShapeGroup">
                <path d="M36.735131,9.01634278 L36.5478965,9.18845643 C36.5616057,9.17669603 36.6585138,9.10050187 36.8272165,8.98114095 C37.1433895,8.75744154 37.5117804,8.52884318 37.919016,8.31548849 C40.0799492,7.18335456 42.1000029,7.02421033 43.9772768,8.2445614 C44.3246262,8.47036124 44.6736927,8.74562989 45.0242502,9.07530889 C45.8033382,9.80799577 46.2761932,10.5544179 46.521906,11.3405849 C46.9964911,12.8590372 46.6500273,14.71737 45.6879963,16.634509 C45.4449561,17.1188405 45.1841875,17.5620115 44.9274777,17.948085 C44.8417646,18.0769914 44.7647824,18.1869772 44.6993476,18.2762467 C43.394541,19.9234558 43.6813144,22.2297733 45.3027727,23.4780947 C46.924231,24.7264162 49.2663609,24.4440276 50.5340663,22.8473623 C50.685187,22.6570268 50.9022477,22.3609015 51.1631558,21.968514 C51.5771867,21.3458407 51.9871588,20.6491016 52.3701432,19.8858887 C54.0971028,16.4443969 54.7765223,12.8001847 53.6455765,9.18168256 C53.0219796,7.18646155 51.8643611,5.35911062 50.1720621,3.7676019 C49.5038579,3.13919467 48.807114,2.58975276 48.083625,2.11943751 C43.5682509,-0.815851464 38.7562676,-0.436752924 34.4181279,1.8360406 C33.7016207,2.21142571 33.0534765,2.61361999 32.4780978,3.02071323 C32.2697018,3.16815799 32.0825032,3.30815345 31.917249,3.4380849 C31.8045613,3.52668577 31.7158657,3.59967149 31.6520044,3.65445459 L31.4647699,3.82656824 L1.09152752,33.735388 C-0.363842508,35.1685046 -0.363842508,37.4920458 1.09152752,38.9251625 C2.54689755,40.3582792 4.90651859,40.3582792 6.36188863,38.9251625 L36.735131,9.01634278 Z" id="Path-2" fill="#FFFFFF"></path>
                <path d="M35.8128178,8.10813224 L35.6911154,8.22000611 C35.8396633,8.1025026 35.9441425,8.02436837 36.0661207,7.93806609 C36.4276547,7.68227277 36.8450024,7.42329513 37.3063606,7.18158511 C39.8483049,5.84983575 42.3569463,5.65219951 44.6958878,7.17266472 C45.1090616,7.44125475 45.5189716,7.76450373 45.9251173,8.14646021 C46.8640172,9.02944087 47.4567058,9.96502551 47.7685484,10.962777 C48.3579965,12.848738 47.9532655,15.0195997 46.857372,17.2035005 C46.5898416,17.7366362 46.3029623,18.2241816 46.0187213,18.65166 C45.856295,18.8959378 45.7391492,19.0557541 45.6898148,19.1178905 C44.8658063,20.155723 45.0522091,21.6548294 46.106157,22.4662383 C47.1601049,23.2776472 48.6824893,23.0940947 49.5064978,22.0562622 C49.6360275,21.8931205 49.8318941,21.6259092 50.0719122,21.2649389 C50.4584119,20.6836706 50.8422733,20.0313059 51.2007675,19.3168972 C52.7938645,16.1421672 53.4150168,12.8104839 52.3989342,9.55949048 C51.841467,7.7758539 50.8036821,6.13766552 49.271195,4.69645066 C48.658579,4.12032083 48.0226786,3.61885924 47.365014,3.19133419 C43.3113075,0.556159349 38.9879119,0.896765886 35.0307833,2.96994398 C34.3683987,3.31697377 33.7692113,3.68878876 33.2391935,4.06378808 C32.9075322,4.29844584 32.6616455,4.4917748 32.5087855,4.62290492 L32.3870831,4.73477879 L2.01384072,34.6435985 C1.0678502,35.5751243 1.0678502,37.0854261 2.01384072,38.016952 C2.95983124,38.9484778 4.49358491,38.9484778 5.43957543,38.016952 L35.8128178,8.10813224 Z" id="Path-2-copy" fill="#FF172A"></path>
            </g>
        </g>
    </g>
</svg>